<svg viewBox="0 -15 512 512" xmlns="http://www.w3.org/2000/svg"><path d="m76 481c24.507812 0 46.304688-11.816406 60-30.050781 13.695312 18.234375 35.492188 30.050781 60 30.050781s46.304688-11.816406 60-30.050781c13.695312 18.234375 35.492188 30.050781 60 30.050781s46.304688-11.816406 60-30.050781c13.695312 18.234375 35.492188 30.050781 60 30.050781 20.03125 0 39-7.757812 53.410156-21.847656 14.566406-14.238282 22.589844-33.113282 22.589844-53.152344 0-21.988281 0-392.429688 0-406h-512v406c0 20.039062 8.023438 38.914062 22.589844 53.152344 14.410156 14.089844 33.378906 21.847656 53.410156 21.847656zm0-30c-24.933594 0-46-20.605469-46-45v-60.484375c13.226562 10.03125 29.238281 15.484375 46 15.484375 16.871094 0 32.457031-5.601562 45-15.039062v60.039062c0 24.8125-20.1875 45-45 45zm285-285c0 24.8125-20.1875 45-45 45s-45-20.1875-45-45v-76h90zm-90 59.960938c12.542969 9.4375 28.128906 15.039062 45 15.039062s32.457031-5.601562 45-15.039062v60.039062c0 24.8125-20.1875 45-45 45s-45-20.1875-45-45zm-30-59.960938c0 24.8125-20.1875 45-45 45s-45-20.1875-45-45v-76h90zm-90 59.960938c12.542969 9.4375 28.128906 15.039062 45 15.039062s32.457031-5.601562 45-15.039062v60.039062c0 24.8125-20.1875 45-45 45s-45-20.1875-45-45zm45 225.039062c-24.8125 0-45-20.1875-45-45v-60.039062c12.542969 9.4375 28.128906 15.039062 45 15.039062s32.457031-5.601562 45-15.039062v60.039062c0 24.8125-20.1875 45-45 45zm120 0c-24.8125 0-45-20.1875-45-45v-60.039062c12.542969 9.4375 28.128906 15.039062 45 15.039062s32.457031-5.601562 45-15.039062v60.039062c0 24.8125-20.1875 45-45 45zm120 0c-24.8125 0-45-20.1875-45-45v-60.039062c12.542969 9.4375 28.128906 15.039062 45 15.039062 16.761719 0 32.773438-5.453125 46-15.484375v60.484375c0 24.394531-21.066406 45-46 45zm0-120c-24.8125 0-45-20.1875-45-45v-60.039062c12.542969 9.4375 28.128906 15.039062 45 15.039062 16.761719 0 32.773438-5.453125 46-15.484375v60.484375c0 24.394531-21.066406 45-46 45zm0-120c-24.8125 0-45-20.1875-45-45v-76h91v76c0 24.394531-21.066406 45-46 45zm-406-181h452v30c-4.292969 0-439.714844 0-452 0zm0 60h91v76c0 24.8125-20.1875 45-45 45-24.933594 0-46-20.605469-46-45zm0 135.515625c13.226562 10.03125 29.238281 15.484375 46 15.484375 16.871094 0 32.457031-5.601562 45-15.039062v60.039062c0 24.8125-20.1875 45-45 45-24.933594 0-46-20.605469-46-45zm0 0"/></svg>