<svg height="512pt" viewBox="0 -106 512 512" width="512pt" xmlns="http://www.w3.org/2000/svg"><path d="m482 52.5 30-18.75-54-33.75h-293c-58.175781 0-165 17.648438-165 75v150.003906c.00390625 57.347656 106.828125 74.996094 165 74.996094 58.175781 0 165-17.648438 165-75v-45h128l54-33.75-30-18.75 30-18.75-30-18.75 30-18.75zm-317-22.5c61.457031 0 135 19.953125 135 45 0 25.0625-73.460938 45-135 45-61.457031 0-135-19.957031-135-45 0-25.0625 73.460938-45 135-45zm0 240c-61.457031 0-135-19.957031-135-45v-105.414062c35.878906 22.867187 92.265625 30.414062 135 30.414062 42.71875 0 99.109375-7.542969 135-30.414062v105.414062c0 25.0625-73.460938 45-135 45zm290.394531-198.75-30 18.75 30 18.75-30 18.75 30 18.75-6 3.75h-119.394531v-75c0-16.96875-10.710938-32.492188-30.644531-45h150.039062l6 3.75-30 18.75zm0 0"/><path d="m120 60h90v30h-90zm0 0"/></svg>