<svg height="512pt" viewBox="-8 0 512 512" width="512pt" xmlns="http://www.w3.org/2000/svg"><path d="m408 464h80c0 22.078125-17.921875 40-40 40s-40-17.921875-40-40zm0 0" fill="#aab2bd"/><path d="m312 152c8.878906 0 16-7.121094 16-16v104c0 39.761719-32.160156 72-72 72-4.398438 0-8 3.601562-8 8 0-4.398438-3.601562-8-8-8-39.761719 0-72-32.238281-72-72v-104c0 8.878906 7.199219 16 16 16h16c26.558594 0 48-21.441406 48-48 0 26.558594 21.519531 48 48 48zm0 0" fill="#ffce54"/><path d="m448 504h-320c-22.078125 0-40-17.921875-40-40v-416h240c0-22.078125 17.921875-40 40-40s40 17.921875 40 40v416c0 22.078125 17.921875 40 40 40zm-120-264v-104c0 8.878906-7.121094 16-16 16h-16c-26.480469 0-48-21.441406-48-48 0 26.558594-21.441406 48-48 48h-16c-8.800781 0-16-7.121094-16-16v104c0 39.761719 32.238281 72 72 72 4.398438 0 8 3.601562 8 8 0-4.398438 3.601562-8 8-8 39.839844 0 72-32.238281 72-72zm0 0" fill="#ccd1d9"/><path d="m48 8h320c-22.078125 0-40 17.921875-40 40h-320c0-22.078125 17.921875-40 40-40zm0 0" fill="#e6e9ed"/><path d="m256 312c39.839844 0 72-32.238281 72-72v-104c0 8.878906-7.121094 16-16 16h-16c-26.480469 0-48-21.441406-48-48v216c0-4.398438 3.601562-8 8-8zm0 0" fill="#f6bb42"/><path d="m8 56c-4.425781 0-8-3.574219-8-8 0-26.472656 21.527344-48 48-48 4.425781 0 8 3.574219 8 8s-3.574219 8-8 8c-17.648438 0-32 14.351562-32 32 0 4.425781-3.574219 8-8 8zm0 0"/><path d="m408 56c-4.425781 0-8-3.574219-8-8 0-17.648438-14.351562-32-32-32s-32 14.351562-32 32c0 4.425781-3.574219 8-8 8s-8-3.574219-8-8c0-26.472656 21.527344-48 48-48s48 21.527344 48 48c0 4.425781-3.574219 8-8 8zm0 0"/><path d="m368 16h-320c-4.425781 0-8-3.574219-8-8s3.574219-8 8-8h320c4.425781 0 8 3.574219 8 8s-3.574219 8-8 8zm0 0"/><path d="m328 56h-320c-4.425781 0-8-3.574219-8-8s3.574219-8 8-8h320c4.425781 0 8 3.574219 8 8s-3.574219 8-8 8zm0 0"/><path d="m128 512c-26.472656 0-48-21.527344-48-48 0-4.425781 3.574219-8 8-8s8 3.574219 8 8c0 17.648438 14.351562 32 32 32 4.425781 0 8 3.574219 8 8s-3.574219 8-8 8zm0 0"/><path d="m448 512c-26.472656 0-48-21.527344-48-48 0-4.425781 3.574219-8 8-8s8 3.574219 8 8c0 17.648438 14.351562 32 32 32s32-14.351562 32-32c0-4.425781 3.574219-8 8-8s8 3.574219 8 8c0 26.472656-21.527344 48-48 48zm0 0"/><path d="m448.007812 512h-320c-4.421874 0-8-3.574219-8-8s3.578126-8 8-8h320c4.425782 0 8 3.574219 8 8s-3.574218 8-8 8zm0 0"/><path d="m408 472c-4.425781 0-8-3.574219-8-8v-416c0-4.425781 3.574219-8 8-8s8 3.574219 8 8v416c0 4.425781-3.574219 8-8 8zm0 0"/><path d="m88 472c-4.425781 0-8-3.574219-8-8v-416c0-4.425781 3.574219-8 8-8s8 3.574219 8 8v416c0 4.425781-3.574219 8-8 8zm0 0"/><path d="m488 472h-80c-4.425781 0-8-3.574219-8-8s3.574219-8 8-8h80c4.425781 0 8 3.574219 8 8s-3.574219 8-8 8zm0 0"/><path d="m296 160c-30.871094 0-56-25.128906-56-56 0-4.425781 3.574219-8 8-8s8 3.574219 8 8c0 22.054688 17.945312 40 40 40 4.425781 0 8 3.574219 8 8s-3.574219 8-8 8zm0 0"/><path d="m200 160c-4.425781 0-8-3.574219-8-8s3.574219-8 8-8c22.054688 0 40-17.945312 40-40 0-4.425781 3.574219-8 8-8s8 3.574219 8 8c0 30.871094-25.128906 56-56 56zm0 0"/><path d="m184 160c-13.230469 0-24-10.769531-24-24 0-4.425781 3.574219-8 8-8s8 3.574219 8 8c0 4.414062 3.585938 8 8 8 4.425781 0 8 3.574219 8 8s-3.574219 8-8 8zm0 0"/><path d="m200 160h-16c-4.425781 0-8-3.574219-8-8s3.574219-8 8-8h16c4.425781 0 8 3.574219 8 8s-3.574219 8-8 8zm0 0"/><path d="m168 248c-4.425781 0-8-3.574219-8-8v-104c0-4.425781 3.574219-8 8-8s8 3.574219 8 8v104c0 4.425781-3.574219 8-8 8zm0 0"/><path d="m248 328.007812c-4.425781 0-8-3.574218-8-8 0-8.824218 7.175781-16 16-16 4.425781 0 8 3.578126 8 8 0 4.425782-3.574219 8-8 8 0 4.425782-3.574219 8-8 8zm0 0"/><path d="m248 328.007812c-4.425781 0-8-3.574218-8-8v-.015624c-4.425781 0-8-3.566407-8-7.992188 0-4.414062 3.574219-7.992188 8-7.992188 8.824219 0 16 7.175782 16 16 0 4.425782-3.574219 8-8 8zm0 0"/><path d="m240 320c-44.113281 0-80-35.886719-80-80 0-4.425781 3.574219-8 8-8s8 3.574219 8 8c0 35.289062 28.710938 64 64 64 4.425781 0 8 3.574219 8 8s-3.574219 8-8 8zm0 0"/><path d="m312 160c-4.425781 0-8-3.574219-8-8s3.574219-8 8-8c4.414062 0 8-3.585938 8-8 0-4.425781 3.574219-8 8-8s8 3.574219 8 8c0 13.230469-10.769531 24-24 24zm0 0"/><path d="m312 160h-16c-4.425781 0-8-3.574219-8-8s3.574219-8 8-8h16c4.425781 0 8 3.574219 8 8s-3.574219 8-8 8zm0 0"/><path d="m328 248c-4.425781 0-8-3.574219-8-8v-104c0-4.425781 3.574219-8 8-8s8 3.574219 8 8v104c0 4.425781-3.574219 8-8 8zm0 0"/><path d="m256 320c-4.425781 0-8-3.574219-8-8s3.574219-8 8-8c35.289062 0 64-28.710938 64-64 0-4.425781 3.574219-8 8-8s8 3.574219 8 8c0 44.113281-35.886719 80-80 80zm0 0"/><path d="m248 264c-4.425781 0-8-3.574219-8-8v-64c0-4.425781 3.574219-8 8-8s8 3.574219 8 8v64c0 4.425781-3.574219 8-8 8zm0 0"/><path d="m344 376h-192c-4.425781 0-8-3.574219-8-8s3.574219-8 8-8h192c4.425781 0 8 3.574219 8 8s-3.574219 8-8 8zm0 0"/><path d="m344 408h-192c-4.425781 0-8-3.574219-8-8s3.574219-8 8-8h192c4.425781 0 8 3.574219 8 8s-3.574219 8-8 8zm0 0"/><path d="m288.007812 440h-80.015624c-4.425782 0-8-3.574219-8-8s3.574218-8 8-8h80.015624c4.425782 0 8 3.574219 8 8s-3.574218 8-8 8zm0 0"/></svg>