<?xml version="1.0" encoding="iso-8859-1"?>
<!-- Generator: Adobe Illustrator 19.0.0, SVG Export Plug-In . SVG Version: 6.00 Build 0)  -->
<svg version="1.1" id="Capa_1" xmlns="http://www.w3.org/2000/svg" xmlns:xlink="http://www.w3.org/1999/xlink" x="0px" y="0px"
	 viewBox="0 0 512 512" style="enable-background:new 0 0 512 512;" xml:space="preserve">
<g>
	<g>
		<path d="M497,0C482.634,0,29.318,0,15,0C6.716,0,0,6.716,0,15c0,14.366,0,467.682,0,482c0,8.284,6.716,15,15,15
			c14.366,0,467.682,0,482,0c8.284,0,15-6.716,15-15V166V15C512,6.716,505.284,0,497,0z M30,30h121c0,9.412,0,291.444,0,301H30V30z
			 M331,482H30V361c9.412,0,291.444,0,301,0V482z M331,331H181V181h150V331z M482,482H361c0-9.412,0-291.444,0-301h121V482z
			 M482,151c-9.412,0-291.444,0-301,0V30h301V151z"/>
	</g>
</g>
<g>
</g>
<g>
</g>
<g>
</g>
<g>
</g>
<g>
</g>
<g>
</g>
<g>
</g>
<g>
</g>
<g>
</g>
<g>
</g>
<g>
</g>
<g>
</g>
<g>
</g>
<g>
</g>
<g>
</g>
</svg>
