<svg height="512pt" viewBox="0 -31 512 512" width="512pt" xmlns="http://www.w3.org/2000/svg"><path d="m497 0h-181c-8.285156 0-15 6.714844-15 15v60c0 8.285156 6.714844 15 15 15h15v30h-165c-8.285156 0-15 6.714844-15 15v60c0 8.285156 6.714844 15 15 15h15v30h-166c-8.285156 0-15 6.714844-15 15v60c0 8.285156 6.714844 15 15 15h15v105c0 8.285156 6.714844 15 15 15h151c3.398438 0 6.695312-1.152344 9.351562-3.273438l301-240c3.570313-2.84375 5.648438-7.160156 5.648438-11.726562 0-9.890625 0-169.371094 0-180 0-8.285156-6.714844-15-15-15zm-166 30h151v30h-151zm-150 120h150v30h-150zm-151 120h151v30h-151zm160.753906 150h-130.753906v-90h136c8.285156 0 15-6.714844 15-15 0-21.414062 0-83.632812 0-105h135c8.285156 0 15-6.714844 15-15 0-21.414062 0-83.632812 0-105h121v97.777344zm0 0"/></svg>