<svg id="Capa_1" enable-background="new 0 0 511.934 511.934" height="512" viewBox="0 0 511.934 511.934" width="512" xmlns="http://www.w3.org/2000/svg"><g><path d="m124.753 363.441 63.64 63.64 36.004-36.004-21.207-106.071zm63.64 21.214-21.214-21.213 17.583-17.583 7.07 35.357z"/><path d="m450.468 45.516-47.126-45.516c-16.331 16.331-348.012 348.012-363.441 363.441l148.492 148.493 101.136-101.136-7.071-35.356 36.632-36.631 50.839-18.503-14.511-39.868 39.867-14.51-14.511-39.868 39.868-14.511-14.511-39.868 39.868-14.51-14.49-39.812 40.524-14.567zm-262.075 423.991-106.067-106.066 139.281-139.28 35.354 176.777zm204.624-370.19 14.531 39.924-39.868 14.51 14.511 39.868-39.868 14.51 14.511 39.868-39.867 14.51 14.511 39.868-28.897 10.518-27.193 27.192-28.284-141.422 156.603-156.602 21.063 20.344 8.456 22.459z"/></g></svg>