<svg id="Layer_1" enable-background="new 0 0 512.215 512.215" height="512" viewBox="0 0 512.215 512.215" width="512" xmlns="http://www.w3.org/2000/svg"><path d="m503.916 276.682-15.608-8.727h5.042c8.837 0 16-7.164 16-16 0-.104-.003-102.87-.003-102.755-.012-5.668-3.044-11.042-8.167-13.917l-237.243-133.128c-5.104-2.864.647-2.047-110.549-2.047-8.811 0-15.991 7.138-15.999 15.986-.001 1.599-.001 85.216-.001 86.755h-51.262c-8.832 0-16 7.165-16 16v86.742h-54.019c-8.86 0-15.992 7.189-16 15.989-.001.886 0 102.125 0 102.729 0 5.795 3.133 11.137 8.192 13.965l307.262 171.798c5.088 2.845-.813 2.035 110.527 2.035 8.837 0 16-7.164 16-16v-86.741h54.019c8.837 0 16-7.164 16-16 0-20.392 0-72.527 0-102.719 0-5.753-3.101-11.119-8.191-13.965zm-251.991-244.574 180.218 101.128h-37.328l-180.218-101.128zm225.425 133.128v70.719h-46.274l-24.444-13.667v-57.052zm-307.962-121.803 205.244 115.172v45.791c-194.813-108.924-179.831-101.547-185.787-101.547h-19.457zm15.288 91.416 250.03 139.798h-37.148l-250.031-139.798zm142.864 242.54c-10.229-5.719-241.148-134.831-250.03-139.798h37.148l250.03 139.798zm-225.414-231.262c14.821 8.287 263.218 147.171 275.263 153.906v47.795l-250.754-140.202c-4.61-2.578-6.819-2.035-24.509-2.035zm-70.019 168.797v-66.056l275.263 153.906v66.057zm377.982 165.184h-70.719v-70.719h70.719zm70.018-102.741h-49.888l-20.83-11.647v-59.073h70.719v70.72z"/></svg>