<?xml version="1.0" encoding="utf-8"?>
<!-- Generator: Adobe Illustrator 23.0.2, SVG Export Plug-In . SVG Version: 6.00 Build 0)  -->
<svg version="1.1" id="Capa_1" xmlns="http://www.w3.org/2000/svg" xmlns:xlink="http://www.w3.org/1999/xlink" x="0px" y="0px"
	 viewBox="0 0 512 512" style="enable-background:new 0 0 512 512;" xml:space="preserve">
<path d="M0,190.8l0,160h61c20.9,0,38.8-13.6,45.1-32.5h58c7.5,0,14,4.5,16.4,11.3c11.2,32.1,41.5,53.7,75.6,53.7
	c34,0,64.4-21.6,75.6-53.7c2.3-6.7,8.9-11.3,16.4-11.3h26.8c5.4,0,9.7,4.4,9.7,9.7v60.2c-18.9,6.3-32.5,24.1-32.5,45.1v47.5h160
	v-47.5c0-20.9-13.6-38.8-32.5-45.1v-67.6c0-53.7-43.7-97.4-97.4-97.4H348c-7.5,0-14-4.5-16.4-11.3c-9.5-27.3-32.9-47-60.6-52.3
	v-22.1c8.2-2.4,15.6-6.6,21.7-12.2c23,1.4,94.4,5.7,95.2,5.7c23.6,0.5,46.1-20.7,45.6-45.6c0.6-24.7-22.5-47.6-48.4-45.5l-92.4,5.6
	c-9.7-8.9-22.6-14.4-36.7-14.4c-14.1,0-27,5.4-36.7,14.4L126.9,40C101.1,37.9,78,60.8,78.5,85.5c-0.5,24.8,22,46.1,45.6,45.6
	c0.8,0,72.1-4.3,95.2-5.7c6.1,5.6,13.5,9.9,21.7,12.2v22.1c-27.7,5.3-51.1,25-60.6,52.3c-2.3,6.7-8.9,11.3-16.4,11.3h-58
	c-6.3-18.9-24.1-32.5-45.1-32.5H0z M202.8,74.7c-1.6,7.9-1.2,15.7,0,21.7l-77.8,4.7c-9.7,0.6-16.6-8-16.5-15.5
	c0-9.7,9-16.1,16.5-15.5L202.8,74.7z M387,101l-77.8-4.7c1.6-7.9,1.2-15.7,0-21.7L387,70c7.6-0.5,16.5,5.8,16.5,15.5
	C403.6,93.1,396.7,101.6,387,101z M256,109.8c-13.4,0-24.3-10.9-24.3-24.3s10.9-24.3,24.3-24.3c13.4,0,24.2,10.9,24.2,24.3
	C280.2,98.9,269.4,109.8,256,109.8z M382,450.8v-17.5c0-9.6,7.9-17.5,17.5-17.5h65c9.6,0,17.5,7.9,17.5,17.5v17.5H382L382,450.8z
	 M164,288.2h-55.5l0-35H164c20.2,0,38.2-12.6,44.7-31.4c7-20.1,26-33.6,47.2-33.6s40.3,13.5,47.2,33.6c6.5,18.8,24.5,31.4,44.7,31.4
	h34.2c37.1,0,67.4,30.2,67.4,67.4v65.1h-35V328c0-21.9-17.8-39.7-39.7-39.7H348c-20.2,0-38.2,12.6-44.7,31.4
	c-7,20.1-26,33.6-47.2,33.6s-40.3-13.5-47.2-33.6C202.2,300.9,184.2,288.3,164,288.2z M30,220.8h31c9.6,0,17.5,7.9,17.5,17.5l0,65
	c0,9.6-7.9,17.5-17.5,17.5H30V220.8z"/>
</svg>
