<?xml version="1.0" encoding="iso-8859-1"?>
<!-- Generator: Adobe Illustrator 19.0.0, SVG Export Plug-In . SVG Version: 6.00 Build 0)  -->
<svg version="1.1" id="Capa_1" xmlns="http://www.w3.org/2000/svg" xmlns:xlink="http://www.w3.org/1999/xlink" x="0px" y="0px"
	 viewBox="0 0 512 512" style="enable-background:new 0 0 512 512;" xml:space="preserve">
<g>
	<g>
		<circle cx="437" cy="135" r="15"/>
	</g>
</g>
<g>
	<g>
		<circle cx="437" cy="407" r="15"/>
	</g>
</g>
<g>
	<g>
		<path d="M507.606,64.394l-59.999-60c-5.857-5.858-15.355-5.858-21.213,0l-60,60C363.58,67.207,362,71.022,362,75v15h-30V75
			c0-4.021-1.614-7.874-4.481-10.694l-61-60c-5.838-5.741-15.199-5.741-21.037,0l-61,60C181.614,67.126,180,70.979,180,75v15h-30V75
			c0-3.978-1.58-7.793-4.394-10.606l-60-60c-5.857-5.858-15.355-5.858-21.213,0l-60,60C1.58,67.207,0,71.022,0,75v422
			c0,8.284,6.716,15,15,15h120c8.284,0,15-6.716,15-15v-45h30v45c0,8.284,6.716,15,15,15h122c8.284,0,15-6.716,15-15v-45h30v45
			c0,8.284,6.716,15,15,15h120c8.284,0,15-6.716,15-15c0-11.101,0-410.779,0-422C512,71.022,510.42,67.207,507.606,64.394z M120,482
			H30V81.214l45-45l45,45C120,84.76,120,480.475,120,482z M180,422h-30c0-6.569,0-52.366,0-60h30V422z M180,332h-30
			c0-12.568,0-109.071,0-122h30V332z M180,180h-30c0-6.893,0-53.533,0-60h30V180z M302,482h-92V81.286l46-45.246l46,45.246
			C302,88.241,302,475.203,302,482z M362,422h-30c0-6.569,0-52.366,0-60h30V422z M362,332h-30c0-12.862,0-109.427,0-122h30V332z
			 M362,180h-30c0-6.893,0-53.533,0-60h30V180z M482,482h-90V81.214l45-45l45,45C482,84.76,482,480.475,482,482z"/>
	</g>
</g>
<g>
	<g>
		<circle cx="256" cy="135" r="15"/>
	</g>
</g>
<g>
	<g>
		<circle cx="256" cy="407" r="15"/>
	</g>
</g>
<g>
	<g>
		<circle cx="75" cy="135" r="15"/>
	</g>
</g>
<g>
	<g>
		<circle cx="75" cy="407" r="15"/>
	</g>
</g>
<g>
</g>
<g>
</g>
<g>
</g>
<g>
</g>
<g>
</g>
<g>
</g>
<g>
</g>
<g>
</g>
<g>
</g>
<g>
</g>
<g>
</g>
<g>
</g>
<g>
</g>
<g>
</g>
<g>
</g>
</svg>
