<svg id="Capa_1" enable-background="new 0 0 511.089 511.089" height="512" viewBox="0 0 511.089 511.089" width="512" xmlns="http://www.w3.org/2000/svg"><g><path d="m255.544 0c-99.129 0-179.777 80.648-179.777 179.777v316.312c0 8.284 6.716 15 15 15h329.555c8.284 0 15-6.716 15-15v-316.312c0-99.129-80.648-179.777-179.778-179.777zm-149.777 194.777h134.777v128.156h-134.777zm164.777-164.026c30.063 3.003 57.533 14.934 79.719 33.094l-79.719 79.719zm-30 113.132-80.448-79.445c22.311-18.496 50.056-30.651 80.448-33.687zm30 50.894h134.777v128.156h-134.777zm134.033-30h-112.82l79.719-79.719c18.161 22.187 30.098 49.655 33.101 79.719zm-265.56-78.992 79.99 78.993h-112.495c2.97-29.737 14.678-56.935 32.505-78.993zm-33.25 267.148h134.777v128.156h-134.777zm164.777 128.156v-128.156h134.777v128.156z"/></g></svg>