<svg xmlns="http://www.w3.org/2000/svg" width="30" height="29" viewBox="0 0 30 29"><g><g><path fill="#fff" d="M16.62 11.197c.665 0 1.21.54 1.21 1.21 0 .67-.54 1.21-1.21 1.21h-2.924v2.923c0 .67-.54 1.21-1.21 1.21-.67 0-1.21-.54-1.21-1.21v-2.924H8.352c-.67 0-1.21-.54-1.21-1.21 0-.67.54-1.21 1.21-1.21h2.924V8.274c0-.67.54-1.21 1.21-1.21.67 0 1.21.54 1.21 1.21v2.924zm-4.128 11.178c5.505 0 9.971-4.465 9.971-9.969 0-5.503-4.46-9.969-9.97-9.969-5.511 0-9.978 4.46-9.978 9.97 0 5.509 4.467 9.968 9.977 9.968zm16.3 4.626c.475.474.475 1.24.006 1.714-.462.468-1.406.314-1.714 0l-6.72-6.72a12.344 12.344 0 0 1-7.872 2.818C5.635 24.813.083 19.256.083 12.406S5.63 0 12.486 0s12.41 5.557 12.41 12.406a12.36 12.36 0 0 1-2.824 7.876z"/></g></g></svg>